<?xml version="1.0" standalone="no"?>
<!DOCTYPE svg PUBLIC "-//W3C//DTD SVG 20010904//EN"
 "http://www.w3.org/TR/2001/REC-SVG-20010904/DTD/svg10.dtd">
<svg version="1.0" xmlns="http://www.w3.org/2000/svg"
 width="956.000000pt" height="956.000000pt" viewBox="0 0 956.000000 956.000000"
 preserveAspectRatio="xMidYMid meet">
<metadata>
Created by potrace 1.14, written by Peter Selinger 2001-2017
</metadata>
<g transform="translate(0.000000,956.000000) scale(0.100000,-0.100000)"
fill="#000000" stroke="none">
<path d="M4708 9495 c-2 -2 -41 -6 -88 -9 -47 -3 -97 -7 -111 -10 -14 -3 -49
-7 -77 -8 -29 -2 -52 -5 -52 -8 0 -3 -15 -6 -32 -6 -18 -1 -49 -4 -68 -8 -19
-4 -46 -9 -60 -11 -44 -7 -82 -15 -195 -42 -60 -14 -119 -26 -130 -28 -11 -1
-31 -7 -45 -12 -31 -13 -92 -27 -102 -25 -5 1 -8 -3 -8 -10 0 -6 -2 -9 -5 -6
-8 7 -309 -91 -340 -110 -5 -4 -12 -7 -15 -8 -87 -17 -675 -309 -702 -349 -4
-5 -8 -7 -8 -3 0 4 -40 -19 -90 -52 -49 -33 -93 -60 -99 -60 -5 0 -11 -3 -13
-8 -1 -4 -41 -34 -88 -67 -78 -54 -258 -190 -270 -204 -3 -3 -27 -24 -55 -46
-103 -82 -154 -139 -160 -175 -6 -37 -13 -65 -15 -65 -1 0 -3 -16 -4 -35 -2
-19 -7 -51 -11 -70 -7 -38 -13 -76 -20 -130 -3 -19 -7 -48 -10 -65 -3 -26 -9
-69 -20 -165 -48 -405 -52 -976 -10 -1350 3 -30 8 -75 10 -100 4 -40 10 -91
19 -155 2 -11 7 -44 11 -74 3 -30 9 -63 11 -75 2 -12 7 -37 10 -56 3 -19 8
-48 11 -65 3 -16 7 -40 8 -52 2 -11 6 -29 9 -40 3 -10 8 -34 11 -53 7 -46 43
-201 61 -264 8 -27 12 -52 9 -54 -3 -3 0 -11 6 -19 6 -7 9 -13 5 -13 -3 0 -1
-12 5 -27 6 -16 12 -36 15 -47 5 -28 96 -325 112 -366 3 -8 6 -17 7 -20 1 -3
5 -14 9 -25 7 -18 35 -95 68 -190 6 -16 15 -34 20 -40 4 -5 8 -15 8 -22 0 -10
51 -134 108 -263 9 -19 16 -37 17 -40 1 -3 25 -54 55 -115 29 -60 55 -116 56
-124 2 -8 6 -17 11 -20 4 -3 30 -49 57 -101 27 -52 71 -133 99 -180 27 -47 61
-105 75 -130 14 -25 29 -46 34 -48 4 -2 8 -8 8 -14 0 -10 221 -347 243 -370 7
-8 28 -36 47 -63 19 -28 39 -55 45 -61 5 -6 19 -23 30 -38 21 -29 191 -242
210 -262 5 -7 35 -40 65 -74 248 -280 515 -535 790 -756 41 -33 81 -64 88 -68
15 -9 -76 134 -93 146 -5 4 -6 8 -1 8 5 0 2 8 -6 18 -56 63 -280 488 -371 704
-88 207 -184 475 -212 596 -3 9 -9 35 -15 57 -6 22 -12 47 -14 55 -2 8 -29 71
-59 140 -30 69 -78 190 -107 270 -28 80 -55 152 -58 160 -3 8 -6 18 -7 23 -2
4 -3 8 -5 10 -1 1 -3 10 -6 19 -2 10 -6 26 -8 35 -3 10 -5 19 -6 21 -2 1 -3 5
-4 10 -1 4 -12 39 -24 77 -27 89 -80 301 -88 352 -3 21 -10 43 -15 49 -5 6 -7
13 -4 16 3 3 -2 35 -10 71 -8 36 -15 70 -14 74 1 4 0 10 -1 13 -2 5 -4 17 -14
84 -3 21 -8 57 -12 80 -8 54 -21 172 -28 266 -2 19 -4 35 -5 35 -5 0 -14 256
-14 400 0 221 17 519 38 655 7 44 17 114 20 135 2 20 14 94 21 130 2 11 8 45
14 75 6 30 13 66 16 80 3 14 7 36 10 50 3 14 8 34 11 45 3 11 8 29 9 40 3 21
10 46 39 150 9 33 18 65 19 70 2 6 5 17 8 25 6 16 71 222 73 230 1 3 4 12 8
20 3 8 22 59 41 113 20 53 50 128 66 165 17 37 31 68 31 69 -2 9 134 288 179
368 62 111 134 232 148 248 8 9 11 17 6 17 -5 0 -4 4 1 8 6 4 37 47 70 96 33
48 67 98 75 110 8 11 50 68 95 124 44 57 86 114 92 125 7 12 13 18 13 13 0 -6
10 4 23 20 71 96 291 325 436 454 47 41 93 83 103 93 10 9 22 17 27 17 5 0 11
4 13 8 2 5 27 27 57 51 l54 42 -86 -2 c-47 -1 -88 -3 -89 -4z"/>
<path d="M5475 9456 c-11 -8 -60 -40 -110 -71 -81 -52 -262 -182 -292 -209 -6
-6 -24 -21 -40 -33 -15 -12 -37 -30 -49 -40 -12 -10 -45 -38 -74 -63 -131
-113 -377 -369 -475 -495 -21 -27 -44 -55 -49 -60 -6 -6 -22 -26 -35 -44 -13
-19 -53 -74 -88 -123 -35 -48 -63 -92 -63 -97 0 -5 -4 -11 -8 -13 -8 -3 -131
-197 -145 -228 -4 -8 -19 -35 -33 -60 -33 -57 -174 -336 -174 -345 0 -3 -9
-27 -21 -52 -11 -24 -34 -79 -50 -121 -17 -43 -34 -86 -39 -97 -20 -42 -111
-331 -125 -394 -2 -9 -9 -31 -14 -50 -6 -19 -9 -37 -6 -39 3 -3 1 -10 -4 -16
-6 -6 -12 -25 -15 -41 -2 -17 -5 -30 -6 -30 -1 0 -3 -9 -5 -20 -5 -25 -17 -87
-21 -100 -2 -9 -8 -42 -19 -105 -3 -14 -7 -36 -10 -50 -7 -32 -15 -94 -20
-145 -2 -22 -5 -40 -5 -40 -9 0 -32 -281 -34 -402 -1 -40 -5 -73 -9 -73 -4 0
-3 -8 2 -18 5 -10 6 -24 1 -32 -4 -7 -4 -24 1 -37 5 -12 5 -23 1 -23 -9 0 -7
-74 3 -89 3 -6 2 -11 -3 -11 -5 0 -8 -10 -6 -22 1 -13 3 -23 4 -23 1 0 3 -49
6 -110 7 -164 9 -189 17 -202 5 -8 3 -13 -3 -13 -7 0 -8 -6 -1 -18 5 -10 8
-32 7 -50 -1 -17 1 -32 5 -32 4 0 5 -9 2 -20 -3 -11 -2 -28 2 -37 4 -10 9 -34
10 -53 1 -19 8 -69 15 -110 l13 -75 18 70 c11 39 21 79 23 90 2 11 9 32 15 48
6 15 8 27 5 27 -4 0 -1 7 6 15 7 8 9 15 5 15 -4 0 -2 6 4 14 7 8 14 24 16 37
3 13 11 37 18 54 8 16 27 62 43 100 43 105 132 273 185 352 16 23 29 44 29 48
0 3 5 11 10 18 6 7 34 44 62 82 29 39 56 75 60 80 26 35 129 152 190 216 21
22 56 66 76 98 79 122 257 350 362 465 126 138 336 340 450 431 25 20 54 44
65 53 113 95 384 278 508 342 26 14 47 28 47 32 0 5 9 8 19 8 11 0 21 4 23 8
3 8 181 97 283 142 28 12 64 27 80 35 48 21 274 101 340 120 33 10 67 20 75
23 8 3 20 6 25 7 6 2 30 8 55 15 25 7 52 14 60 15 8 2 46 11 85 20 38 9 83 18
100 20 16 2 41 6 55 9 65 13 149 26 157 25 4 -1 10 0 13 1 7 3 62 8 140 14 36
3 65 6 65 7 0 1 105 2 233 4 127 1 232 -1 232 -4 0 -3 28 -6 63 -7 70 -1 129
-7 267 -30 129 -21 126 -21 205 -39 109 -25 119 -27 133 -28 6 0 12 -4 12 -9
0 -5 4 -7 9 -4 8 5 43 -3 91 -21 8 -3 20 -7 26 -8 6 -2 22 -6 34 -10 26 -8 24
-3 -22 51 -31 35 -309 315 -353 354 -37 34 -111 95 -149 125 -21 17 -44 35
-50 40 -49 45 -359 262 -445 311 -14 8 -39 23 -56 34 -16 10 -51 30 -76 44
-25 13 -66 36 -90 50 -55 33 -341 173 -435 214 -39 17 -133 56 -210 85 -76 30
-148 58 -159 62 -11 5 -22 9 -25 10 -11 2 -206 67 -220 72 -8 4 -17 7 -20 8
-3 1 -36 11 -75 23 -38 12 -95 28 -125 36 -30 8 -91 24 -135 36 -84 23 -101
27 -150 35 -16 3 -37 8 -45 10 -8 2 -31 7 -50 10 -19 3 -48 8 -65 11 -16 3
-41 7 -55 9 -14 2 -38 6 -55 8 -17 3 -39 0 -50 -7z"/>
<path d="M1398 7738 c-56 -69 -47 -58 -135 -173 -87 -114 -269 -389 -333 -500
-106 -185 -151 -271 -149 -281 0 -4 -3 -10 -8 -13 -10 -7 -77 -144 -75 -153 1
-3 -5 -12 -13 -18 -8 -7 -15 -18 -15 -25 0 -6 -6 -25 -14 -41 -27 -55 -95
-205 -101 -224 -1 -3 -7 -18 -14 -35 -52 -132 -65 -164 -77 -192 -8 -17 -14
-33 -14 -36 0 -3 -5 -18 -12 -34 -6 -15 -12 -30 -13 -33 0 -3 -27 -84 -59
-180 -32 -96 -60 -182 -61 -190 -2 -8 -4 -16 -5 -17 -2 -2 -4 -7 -5 -13 -1 -5
-3 -11 -5 -12 -1 -2 -3 -11 -5 -20 -2 -10 -12 -48 -24 -85 -11 -37 -25 -86
-30 -108 -6 -22 -22 -87 -36 -145 -14 -58 -35 -148 -46 -200 -11 -52 -22 -104
-25 -115 -2 -11 -7 -36 -10 -55 -3 -19 -10 -54 -15 -78 -5 -23 -12 -59 -15
-80 -3 -20 -8 -50 -11 -67 -3 -16 -6 -41 -8 -55 -1 -14 -6 -47 -11 -75 -4 -27
-7 -58 -5 -67 1 -10 -1 -18 -6 -18 -4 0 -9 -17 -9 -38 -1 -20 -5 -66 -8 -102
-4 -36 -7 -69 -8 -75 0 -13 13 -231 17 -275 2 -19 6 -65 9 -101 4 -37 9 -77
12 -90 2 -13 7 -44 10 -69 3 -25 7 -52 9 -60 3 -8 7 -33 11 -55 7 -50 27 -144
55 -255 11 -47 21 -92 23 -100 1 -9 5 -20 9 -27 4 -6 8 -23 9 -37 1 -14 6 -26
11 -26 4 0 7 -6 6 -12 -3 -13 28 -121 41 -148 5 -8 25 -62 45 -120 21 -58 56
-148 78 -200 47 -111 190 -393 235 -465 17 -27 39 -63 48 -80 26 -47 127 -198
146 -219 10 -11 18 -23 18 -26 0 -4 19 -31 42 -62 24 -30 54 -70 68 -88 24
-33 47 -61 153 -185 68 -80 326 -337 407 -405 35 -30 71 -61 79 -68 8 -8 39
-32 70 -55 31 -23 58 -44 61 -47 16 -17 132 -100 140 -100 6 0 10 -4 10 -8 0
-4 29 -25 65 -47 36 -22 65 -43 65 -46 0 -4 8 -9 18 -13 9 -3 31 -15 47 -26
17 -11 42 -26 58 -32 15 -7 27 -16 27 -20 0 -4 6 -8 14 -8 7 0 19 -7 26 -15 7
-9 15 -13 18 -11 3 3 17 -3 32 -14 39 -28 267 -140 392 -193 115 -49 350 -137
384 -143 12 -2 41 -11 65 -20 24 -8 51 -17 59 -19 8 -2 69 -17 135 -34 66 -17
137 -32 157 -35 21 -2 41 -7 45 -9 5 -3 29 -8 53 -12 25 -3 52 -8 60 -10 8 -2
35 -6 60 -9 25 -3 56 -9 70 -13 36 -10 4320 -13 4320 -3 0 4 -10 8 -22 8 -13
0 -41 2 -63 6 -89 14 -108 16 -153 21 -26 3 -60 8 -75 11 -15 3 -44 7 -65 10
-37 3 -190 27 -247 38 -16 3 -43 8 -60 11 -16 3 -55 10 -85 16 -30 6 -68 12
-85 14 -16 3 -55 10 -85 16 -30 7 -64 13 -75 15 -11 1 -21 3 -22 4 -2 2 -12 3
-22 4 -11 0 -23 4 -27 9 -4 4 -17 7 -28 7 -22 0 -291 66 -305 74 -4 3 -18 7
-32 10 -49 10 -66 15 -159 44 -52 17 -135 42 -185 57 -49 15 -142 45 -205 67
-63 22 -119 41 -125 42 -5 2 -23 8 -38 14 -16 7 -30 12 -33 12 -7 0 -186 71
-242 96 -29 13 -55 24 -59 24 -3 0 -31 12 -62 26 -31 14 -83 39 -116 54 -120
56 -425 210 -435 220 -3 3 -20 13 -38 23 -17 9 -47 25 -64 35 -18 9 -34 20
-36 25 -2 4 -8 7 -13 7 -9 0 -28 11 -146 87 -28 18 -56 33 -61 33 -6 0 -12 3
-14 8 -4 10 -65 52 -76 52 -5 0 -17 9 -27 20 -10 11 -24 20 -32 20 -7 0 -16 7
-19 15 -4 8 -11 15 -16 15 -5 0 -37 20 -69 45 -33 25 -63 45 -68 45 -5 0 -11
3 -13 8 -1 4 -59 50 -128 102 -126 95 -139 106 -188 148 -15 13 -40 33 -55 45
-141 111 -525 483 -678 657 -41 46 -83 94 -94 106 -11 12 -36 41 -55 65 -19
24 -44 53 -55 65 -11 12 -29 35 -40 50 -20 28 -61 79 -80 100 -5 6 -17 21 -25
34 -8 12 -26 34 -38 50 -13 16 -24 32 -25 37 0 4 -5 13 -11 19 -34 35 -172
229 -202 284 -6 11 -18 28 -27 37 -8 10 -15 20 -14 23 1 3 -12 25 -29 50 -93
136 -224 373 -355 640 -55 113 -104 213 -110 222 -5 10 -9 25 -9 33 0 8 -4 15
-10 15 -5 0 -10 6 -10 14 0 8 -13 44 -30 80 -91 204 -234 619 -305 889 -3 9
-7 26 -10 38 -2 11 -7 29 -10 39 -3 10 -8 27 -10 37 -18 77 -45 193 -49 216
-3 15 -8 37 -11 50 -19 85 -28 137 -29 160 0 9 -3 17 -6 17 -3 0 -6 12 -7 28
-4 54 -8 82 -13 82 -3 0 -5 12 -6 28 0 15 -6 65 -13 112 -7 47 -14 99 -16 115
-17 128 -19 146 -30 285 -13 154 -16 203 -19 345 -2 83 -5 155 -6 160 -1 6 -1
12 0 15 6 15 4 82 -2 86 -5 3 -6 10 -2 15 3 6 8 79 10 162 3 148 6 195 19 362
10 112 12 134 20 188 4 26 4 47 2 47 -3 0 -25 -24 -49 -52z"/>
<path d="M7338 7615 c-2 -1 -37 -5 -78 -8 -82 -6 -155 -14 -210 -23 -19 -3
-51 -7 -70 -10 -19 -2 -50 -9 -70 -14 -19 -5 -52 -12 -73 -15 -56 -9 -314 -80
-379 -105 -32 -12 -60 -21 -62 -21 -3 -1 -54 -21 -113 -46 -59 -25 -122 -50
-139 -57 -18 -6 -40 -18 -49 -26 -10 -8 -19 -13 -19 -12 -2 6 -57 -20 -97 -45
-20 -12 -40 -19 -43 -16 -3 4 -6 1 -6 -5 0 -7 -4 -12 -9 -12 -32 0 -430 -257
-489 -317 -7 -7 -16 -13 -20 -13 -4 0 -21 -12 -37 -28 -17 -15 -57 -50 -90
-78 -33 -28 -72 -61 -87 -74 -31 -27 -37 -46 -10 -35 9 4 33 9 52 12 60 7 85
11 85 13 0 4 116 11 220 11 113 1 190 -4 260 -16 91 -16 138 -22 230 -29 75
-7 133 -14 210 -28 33 -5 74 -12 90 -15 17 -2 59 -11 95 -19 36 -9 77 -17 92
-19 15 -2 32 -6 37 -10 6 -3 23 -8 38 -10 30 -4 195 -51 228 -64 26 -11 117
-42 130 -45 29 -6 91 -30 99 -37 6 -5 16 -9 23 -9 7 0 42 -13 78 -30 36 -16
72 -30 79 -30 7 0 19 -7 26 -15 7 -8 18 -15 24 -15 14 0 223 -106 321 -162
104 -60 352 -222 365 -238 3 -3 21 -17 40 -30 19 -13 37 -27 40 -30 3 -3 25
-21 50 -40 61 -47 75 -58 127 -105 25 -22 55 -48 67 -58 57 -49 216 -210 216
-219 0 -5 4 -7 9 -4 5 4 11 2 13 -3 3 -10 75 -94 126 -148 17 -19 32 -36 32
-38 0 -2 32 -44 71 -92 80 -100 209 -286 209 -302 0 -6 4 -11 8 -11 5 0 15
-12 23 -27 8 -16 34 -62 60 -103 42 -70 160 -303 209 -415 37 -83 107 -274
141 -387 18 -59 36 -105 40 -103 4 3 10 31 15 62 4 32 9 65 11 73 1 8 5 29 8
45 4 17 8 46 10 65 1 19 4 35 5 35 3 0 5 15 14 109 4 33 9 75 11 93 4 31 12
145 21 278 7 121 2 705 -6 705 -3 0 -6 15 -6 33 -1 39 -12 169 -18 217 -3 19
-7 61 -10 92 -3 32 -8 68 -10 80 -3 13 -7 46 -10 73 -3 28 -8 61 -11 75 -3 14
-6 38 -7 53 -1 15 -5 30 -10 33 -4 3 -6 9 -3 14 3 4 0 32 -5 61 -6 30 -13 68
-16 84 -2 17 -7 37 -9 45 -2 8 -7 31 -10 50 -3 19 -11 53 -16 75 -11 41 -15
59 -25 109 -2 16 -8 34 -12 40 -3 6 -8 20 -9 31 -2 11 -19 67 -38 125 -20 58
-37 110 -38 115 -13 44 -31 92 -40 103 -5 6 -6 12 -2 12 4 0 3 6 -3 13 -6 6
-11 17 -12 22 -4 16 -12 36 -35 90 -12 28 -22 53 -23 58 -1 4 -34 69 -73 145
-71 138 -71 139 -128 167 -31 16 -58 29 -61 30 -3 1 -39 18 -80 38 -41 19 -82
37 -90 39 -8 2 -18 7 -21 11 -3 5 -15 10 -25 12 -10 2 -20 4 -21 5 -2 2 -6 3
-10 5 -5 1 -19 6 -33 12 -39 16 -147 54 -167 58 -10 2 -49 14 -88 25 -38 12
-88 26 -110 31 -22 4 -51 11 -65 14 -14 3 -38 8 -55 10 -16 3 -37 8 -45 10 -8
2 -31 6 -50 9 -19 3 -46 8 -59 11 -24 4 -92 13 -181 21 -52 5 -457 13 -462 9z"/>
<path d="M7002 6002 c7 -9 15 -19 18 -22 3 -3 24 -27 45 -55 22 -27 43 -52 46
-55 43 -38 245 -407 284 -520 1 -3 4 -12 8 -20 3 -8 12 -35 21 -60 8 -25 31
-88 51 -140 20 -52 46 -122 57 -155 11 -33 22 -67 25 -75 3 -8 8 -21 10 -27 1
-7 5 -19 6 -25 2 -7 6 -20 9 -28 8 -21 47 -161 53 -188 3 -12 7 -32 10 -44 3
-13 8 -36 10 -53 3 -16 8 -39 12 -50 3 -11 7 -31 9 -45 1 -14 5 -34 7 -45 3
-11 8 -40 11 -65 3 -25 9 -58 11 -73 3 -16 8 -50 10 -75 2 -26 8 -83 12 -127
15 -158 9 -540 -11 -710 -2 -16 -7 -55 -10 -85 -7 -54 -15 -106 -23 -145 -2
-11 -7 -33 -9 -50 -3 -16 -10 -48 -15 -70 -5 -22 -12 -51 -15 -65 -18 -90
-101 -358 -116 -377 -6 -7 -8 -13 -4 -13 3 0 -5 -25 -19 -55 -13 -31 -24 -58
-25 -60 0 -3 -9 -25 -20 -50 -11 -25 -19 -46 -18 -48 3 -4 -127 -252 -135
-258 -5 -3 -8 -9 -8 -13 1 -3 -5 -16 -13 -29 -8 -12 -39 -62 -70 -112 -58 -92
-95 -146 -121 -178 -8 -9 -15 -21 -15 -26 0 -5 -4 -11 -9 -13 -4 -2 -37 -39
-72 -83 -72 -90 -312 -335 -328 -335 -6 0 -11 -5 -11 -11 0 -9 37 -10 133 -6
72 4 141 8 152 11 11 2 40 7 65 10 25 3 56 8 70 11 14 3 39 8 55 10 17 3 38 8
48 11 10 3 30 7 45 9 40 6 71 13 80 19 5 3 19 7 33 10 97 20 274 79 399 134
128 55 336 164 350 183 3 3 15 9 28 13 12 4 22 12 22 17 0 5 5 9 10 9 12 0
130 83 205 144 27 23 61 50 75 61 29 23 277 272 300 301 9 10 41 51 73 91 31
40 57 77 57 82 0 6 3 11 8 11 4 0 23 25 42 55 19 30 38 55 43 55 4 0 7 4 7 9
0 12 62 114 75 123 5 4 7 8 3 8 -4 0 9 28 30 63 33 53 50 85 57 107 1 3 18 40
39 82 34 72 37 83 31 140 -10 106 -26 230 -41 323 -20 126 -71 329 -120 475
-20 58 -37 114 -40 124 -2 11 -8 24 -14 30 -5 5 -10 16 -10 23 0 7 -10 35 -21
61 -40 89 -48 107 -49 117 -1 6 -9 18 -17 28 -9 9 -14 17 -10 17 10 0 -132
267 -164 309 -11 13 -17 27 -14 31 3 4 -2 10 -10 14 -8 3 -15 12 -15 21 0 8
-4 15 -10 15 -5 0 -10 6 -10 13 0 7 -9 23 -20 35 -11 12 -20 24 -20 27 0 5
-27 45 -57 84 -7 9 -33 45 -60 81 -26 36 -56 74 -66 85 -11 11 -31 35 -46 54
-76 100 -342 365 -441 441 -18 14 -42 33 -54 43 -11 10 -34 28 -50 40 -16 12
-37 30 -47 40 -11 9 -23 17 -29 17 -5 0 -10 3 -10 8 0 4 -8 12 -19 17 -22 12
-134 88 -141 96 -10 10 -161 99 -170 99 -4 0 -10 4 -12 8 -4 11 -369 191 -398
197 -19 4 -20 2 -8 -13z"/>
<path d="M5577 4964 c-1 -2 -16 -5 -32 -8 -30 -6 -59 -12 -92 -20 -36 -9 -146
-58 -184 -81 -21 -14 -41 -25 -44 -25 -10 0 -109 -81 -163 -133 -50 -48 -138
-160 -171 -217 -72 -123 -117 -210 -152 -290 -22 -52 -44 -104 -49 -115 -13
-29 -24 -70 -19 -71 2 0 -1 -7 -7 -15 -10 -12 -19 -38 -29 -84 -2 -5 -10 -37
-18 -70 -9 -33 -18 -73 -21 -90 -3 -16 -8 -41 -11 -55 -21 -99 -36 -308 -23
-316 5 -3 5 -10 1 -17 -10 -17 -10 -57 0 -57 5 0 4 -6 -2 -13 -6 -8 -9 -16 -7
-18 2 -2 7 -35 10 -74 10 -111 25 -198 51 -298 9 -34 18 -69 20 -77 2 -8 15
-49 30 -90 15 -41 28 -79 29 -85 3 -12 26 -64 56 -128 25 -53 30 -55 141 -65
115 -11 392 -3 418 12 3 2 29 6 58 10 28 3 63 10 77 16 14 5 26 8 26 6 0 -2
27 4 60 14 33 10 60 16 60 13 0 -3 7 0 15 7 8 7 15 10 15 6 0 -4 13 0 29 9 17
8 38 17 48 18 10 2 31 9 46 15 16 7 31 12 34 12 12 0 278 134 281 142 2 4 8 8
13 8 14 0 206 132 249 170 19 17 30 29 24 26 -6 -3 -39 -8 -74 -11 -34 -3 -66
-8 -71 -11 -5 -3 -9 1 -9 8 0 8 -3 9 -8 3 -11 -17 -155 -12 -307 10 -53 8
-171 40 -225 62 -8 4 -17 7 -20 7 -43 10 -263 140 -312 186 -17 15 -15 16 30
10 88 -11 172 -3 284 26 57 14 178 62 188 74 3 3 25 18 50 32 25 15 59 37 75
50 35 27 149 140 185 183 75 90 168 275 196 390 4 17 8 35 10 40 15 54 26 156
25 230 -1 60 -7 130 -11 130 -1 0 -3 14 -4 30 -5 44 -38 149 -50 157 -6 4 -7
8 -3 8 9 0 -53 118 -81 152 -86 109 -231 208 -357 243 -50 14 -268 29 -278 19z"/>
<path d="M7311 3493 c-24 -43 -65 -111 -92 -151 -27 -40 -49 -75 -49 -78 0 -2
-5 -10 -10 -17 -21 -24 -45 -56 -65 -83 -17 -24 -41 -54 -125 -158 -75 -92
-320 -324 -425 -401 -22 -17 -42 -33 -45 -36 -11 -14 -189 -129 -199 -129 -6
0 -11 -4 -11 -9 0 -5 -9 -12 -19 -16 -11 -3 -36 -17 -55 -30 -20 -13 -36 -22
-36 -20 0 2 -21 -8 -47 -23 -27 -15 -88 -45 -138 -66 -49 -21 -94 -42 -100
-46 -5 -4 -23 -11 -40 -15 -44 -12 -45 -12 -50 -15 -3 -1 -8 -3 -12 -4 -5 -1
-12 -4 -18 -7 -5 -4 -26 -10 -45 -14 -19 -4 -39 -10 -45 -13 -5 -4 -14 -7 -20
-8 -5 -1 -28 -6 -50 -12 -22 -6 -51 -13 -65 -16 -231 -45 -292 -53 -443 -55
l-69 -1 31 -39 c43 -54 193 -199 281 -271 107 -88 106 -87 132 -101 13 -6 25
-15 28 -18 9 -10 69 -51 76 -51 3 0 18 -8 32 -18 85 -60 295 -158 435 -203
l89 -29 71 52 c40 28 74 55 75 60 2 4 8 8 14 8 5 0 15 6 22 13 7 6 32 28 57
47 90 72 297 290 387 407 50 67 92 126 92 132 0 6 3 11 8 11 4 0 18 20 32 45
14 25 27 45 30 45 3 0 11 15 19 33 8 17 17 34 20 37 12 10 110 208 154 310 42
99 111 294 121 343 3 12 12 47 20 77 13 46 27 107 51 230 2 8 4 15 5 15 1 0 3
16 5 35 2 19 6 51 9 70 15 106 29 260 23 260 -2 0 -23 -35 -46 -77z"/>
<path d="M66 2325 c3 -27 8 -61 10 -75 3 -14 7 -38 10 -55 5 -27 48 -230 59
-280 36 -155 101 -389 135 -482 11 -29 17 -53 14 -53 -4 0 -2 -6 4 -12 6 -7
10 -17 10 -21 0 -4 5 -20 10 -35 6 -15 29 -76 52 -137 47 -126 60 -156 120
-290 18 -38 39 -88 48 -110 8 -22 18 -42 22 -45 3 -3 20 -34 38 -70 42 -85
106 -203 143 -263 16 -26 29 -52 29 -57 0 -6 5 -10 10 -10 6 0 10 -5 10 -10 0
-6 37 -66 82 -134 l82 -124 708 0 c389 0 708 3 708 6 0 4 -15 13 -32 20 -90
37 -285 139 -428 224 -73 44 -133 83 -332 216 -21 14 -38 29 -38 34 0 4 -5 8
-10 8 -9 0 -126 87 -158 118 -8 7 -30 25 -50 40 -21 15 -43 35 -50 44 -7 10
-17 18 -21 18 -9 0 -136 117 -240 221 -128 128 -275 292 -351 390 -14 18 -38
50 -55 71 -16 20 -48 63 -70 93 -22 31 -50 69 -62 85 -13 15 -23 32 -23 36 0
5 -14 25 -30 44 -16 19 -30 41 -30 48 0 7 -9 20 -20 29 -11 10 -20 21 -20 25
0 5 -12 27 -27 51 -37 57 -59 95 -80 137 -9 19 -19 37 -22 40 -4 3 -24 39 -45
80 -22 41 -48 90 -58 108 -10 17 -18 34 -18 37 0 3 -9 24 -20 47 l-19 43 5
-50z"/>
</g>
</svg>
